<?xml version="1.0" standalone="no"?>
<!DOCTYPE svg PUBLIC "-//W3C//DTD SVG 20010904//EN"
 "http://www.w3.org/TR/2001/REC-SVG-20010904/DTD/svg10.dtd">
<svg version="1.0" xmlns="http://www.w3.org/2000/svg"
 width="1583.000000pt" height="1583.000000pt" viewBox="0 0 1583.000000 1583.000000"
 preserveAspectRatio="xMidYMid meet">
<metadata>
Created by potrace 1.11, written by Peter Selinger 2001-2013
</metadata>
<g transform="translate(0.000000,1583.000000) scale(0.100000,-0.100000)"
fill="#000000" stroke="none">
<path d="M8820 11263 c0 -6 -8 -11 -17 -11 -38 1 -118 -13 -183 -32 -59 -18
-72 -21 -87 -22 -7 -1 -13 -5 -13 -9 0 -7 -19 -16 -45 -21 -5 -1 -16 -8 -24
-15 -7 -8 -20 -12 -28 -9 -8 3 -11 2 -8 -3 3 -5 -4 -12 -15 -16 -11 -3 -20
-11 -20 -16 0 -6 -4 -8 -9 -4 -5 3 -16 -2 -24 -10 -9 -8 -19 -15 -24 -15 -4 0
-20 -11 -35 -24 -14 -14 -29 -22 -32 -19 -3 4 -6 1 -6 -5 0 -7 -7 -12 -16 -12
-8 0 -12 -4 -9 -10 3 -5 -2 -10 -12 -10 -10 0 -27 -11 -37 -25 -10 -14 -25
-25 -33 -25 -8 0 -11 -4 -8 -10 3 -5 0 -10 -8 -10 -20 0 -363 -343 -347 -346
3 0 -12 -17 -33 -37 -20 -21 -35 -37 -32 -37 3 0 -6 -11 -21 -25 -15 -14 -23
-25 -19 -25 4 0 -4 -11 -19 -25 -15 -14 -25 -29 -21 -34 3 -5 -4 -12 -15 -16
-11 -4 -18 -10 -15 -15 3 -4 -12 -25 -32 -47 -21 -21 -35 -39 -33 -40 3 -1 -3
-12 -12 -23 -10 -11 -18 -23 -18 -26 0 -4 -10 -16 -22 -28 -13 -12 -24 -29
-26 -37 -2 -7 -10 -19 -18 -25 -7 -6 -14 -18 -14 -25 0 -8 -9 -20 -20 -27 -11
-7 -20 -19 -20 -27 0 -8 -4 -15 -10 -15 -5 0 -10 -7 -10 -15 0 -8 -4 -15 -10
-15 -5 0 -10 -6 -10 -13 0 -8 -9 -22 -20 -32 -20 -18 -20 -17 -21 26 -2 97
-22 314 -29 314 -1 0 -3 19 -3 42 -1 23 -5 44 -9 48 -4 4 -4 13 -1 21 3 8 -1
29 -8 47 -8 17 -14 37 -14 42 -2 22 -18 71 -29 84 -8 12 -8 13 2 7 11 -7 11
-4 0 13 -7 12 -16 21 -20 21 -5 0 -8 7 -8 16 0 8 -4 12 -10 9 -5 -3 -10 -1
-10 6 0 17 -130 138 -130 121 0 -4 -5 1 -11 11 -5 9 -19 17 -30 17 -11 0 -22
6 -25 14 -3 8 -12 12 -20 9 -8 -3 -14 0 -14 6 0 6 -9 11 -20 11 -11 0 -20 5
-20 11 0 6 -7 9 -15 5 -8 -3 -20 0 -27 7 -7 7 -24 14 -38 16 -14 1 -32 7 -40
11 -18 10 -80 21 -136 25 -23 1 -46 5 -52 9 -6 3 -13 0 -15 -6 -3 -8 -6 -9 -6
-2 -1 8 -14 9 -40 4 -21 -4 -52 -6 -69 -6 -16 1 -29 -2 -27 -5 2 -3 -13 -11
-33 -18 -20 -8 -44 -21 -52 -30 -23 -25 -50 -77 -44 -84 3 -3 -2 -17 -11 -31
-14 -20 -14 -26 -4 -26 9 0 10 -3 4 -8 -6 -4 -10 -17 -9 -30 1 -12 -2 -24 -6
-27 -3 -2 -5 -24 -4 -50 2 -30 -1 -43 -8 -39 -7 4 -8 2 -4 -5 12 -19 16 -90 5
-96 -5 -4 -6 -11 -2 -18 10 -17 10 -266 -1 -260 -5 4 -6 0 -1 -7 5 -8 9 -58
10 -111 0 -54 4 -101 7 -104 3 -4 2 -19 -2 -35 -4 -16 -6 -31 -3 -33 8 -9 9
-227 0 -227 -4 0 -5 -5 -1 -12 12 -19 12 -108 0 -108 -8 0 -8 -2 0 -8 5 -4 10
-20 9 -37 -1 -16 3 -40 7 -53 5 -15 4 -21 -2 -17 -11 7 -9 -23 3 -42 5 -8 4
-13 -2 -13 -6 0 -11 -5 -11 -11 0 -5 4 -7 10 -4 7 4 7 -2 0 -19 -6 -17 -6 -26
3 -30 8 -3 9 -5 1 -5 -8 -1 -9 -12 -4 -36 4 -19 5 -35 1 -35 -10 0 -7 -74 4
-82 6 -5 4 -8 -5 -8 -13 0 -13 -1 0 -10 13 -9 13 -10 0 -10 -13 0 -13 -1 0
-10 8 -5 11 -10 5 -10 -11 0 -11 -101 -1 -119 4 -6 4 -11 -1 -11 -10 0 -9 -52
1 -68 4 -7 2 -12 -6 -12 -9 0 -9 -3 2 -10 8 -5 10 -10 5 -10 -12 0 -12 -90 0
-110 5 -8 4 -11 -2 -7 -7 5 -10 -10 -8 -43 1 -28 -1 -53 -6 -56 -5 -3 -5 -13
-1 -22 4 -9 7 -35 5 -57 -2 -41 -2 -53 -3 -115 -1 -19 -2 -47 -4 -62 -2 -16 0
-28 4 -28 10 0 0 -41 -14 -59 -8 -11 -8 -13 2 -7 9 6 11 -1 8 -28 -2 -20 0
-38 5 -41 5 -4 5 -14 -1 -25 -6 -11 -8 -31 -6 -45 3 -14 2 -25 -2 -25 -4 0 -7
-64 -7 -143 0 -78 -3 -152 -7 -164 -5 -15 -3 -23 3 -23 8 0 7 -6 -2 -16 -7 -9
-9 -18 -3 -22 8 -6 10 -27 4 -42 -1 -3 -4 -72 -6 -155 -3 -82 -9 -154 -14
-160 -6 -7 -5 -16 2 -23 8 -8 8 -15 -1 -26 -9 -10 -9 -16 -1 -21 8 -5 8 -10 0
-20 -8 -10 -8 -15 0 -20 6 -4 7 -12 3 -18 -5 -7 -8 -54 -8 -104 0 -51 -4 -93
-8 -93 -4 0 -3 -9 3 -20 8 -15 8 -20 -2 -20 -9 0 -9 -3 2 -10 8 -5 10 -10 5
-10 -7 0 -11 -27 -10 -67 0 -38 -3 -73 -8 -80 -4 -6 -3 -14 3 -18 6 -3 7 -11
3 -18 -6 -10 -8 -30 -15 -149 -1 -32 -7 -58 -13 -58 -5 0 -4 -4 3 -9 18 -11
19 -15 6 -32 -6 -8 -10 -31 -8 -51 1 -23 -3 -38 -10 -38 -7 0 -7 -3 -1 -8 15
-11 17 -32 2 -32 -8 0 -7 -4 3 -10 8 -5 10 -10 4 -10 -7 0 -12 -12 -11 -27 0
-16 -3 -66 -8 -113 -4 -47 -8 -97 -9 -112 0 -14 -4 -30 -8 -33 -4 -4 -3 -17 3
-28 6 -10 7 -17 2 -14 -6 4 -10 -10 -10 -31 0 -20 -3 -66 -7 -102 -5 -36 -8
-78 -7 -93 1 -21 -2 -26 -11 -21 -9 6 -9 3 1 -9 7 -9 10 -17 5 -17 -5 0 -9
-17 -8 -37 0 -21 -3 -48 -7 -60 -6 -15 -5 -23 2 -23 8 0 8 -4 0 -13 -8 -10 -7
-17 2 -27 9 -10 9 -11 0 -6 -10 5 -13 -5 -14 -36 -1 -24 -1 -47 0 -52 1 -5 -4
-13 -11 -17 -10 -7 -10 -9 0 -9 10 0 10 -5 2 -20 -8 -14 -8 -20 0 -20 7 0 8
-6 2 -17 -4 -10 -8 -44 -8 -75 1 -32 -3 -58 -9 -58 -5 0 -3 -5 5 -10 8 -5 11
-10 5 -10 -6 0 -10 -30 -9 -72 0 -40 -3 -81 -8 -90 -4 -9 -4 -19 1 -22 5 -3 7
-24 5 -47 -3 -30 -1 -38 8 -33 10 6 10 5 1 -8 -7 -8 -11 -17 -9 -19 2 -2 7
-20 10 -39 4 -19 8 -40 9 -47 5 -20 41 -88 52 -95 6 -4 7 -8 3 -8 -4 0 11 -18
32 -40 22 -23 40 -45 40 -50 0 -6 7 -10 15 -10 9 0 18 -7 21 -15 4 -8 13 -15
22 -15 8 0 12 -3 9 -7 -7 -6 16 -22 61 -42 12 -6 22 -15 22 -21 0 -6 4 -9 9
-6 4 3 17 -1 27 -9 10 -8 27 -15 37 -15 9 0 17 -4 17 -10 0 -5 9 -10 20 -10
11 0 20 -4 20 -8 0 -4 9 -9 20 -10 44 -4 50 -6 50 -15 0 -5 6 -7 13 -4 6 2 25
-2 41 -10 18 -10 26 -10 21 -3 -6 9 -2 9 12 1 11 -5 38 -11 59 -12 21 -1 43
-5 49 -8 20 -11 160 -9 174 2 12 10 13 9 6 -3 -8 -13 -7 -13 8 -1 9 7 17 9 17
3 0 -12 73 12 120 41 36 22 67 56 62 70 -1 4 3 7 8 7 9 0 27 32 35 63 2 4 3 8
5 10 4 5 11 43 11 60 0 9 3 16 7 13 4 -2 7 15 6 37 -1 23 3 48 9 55 6 8 6 12
-2 12 -7 0 -9 5 -4 13 4 6 8 26 10 42 6 97 11 133 17 143 4 7 3 12 -3 12 -7 0
-8 9 -3 23 4 12 8 39 7 60 0 20 4 37 10 37 7 0 7 3 0 8 -10 7 -16 54 -6 47 4
-2 6 36 6 83 0 48 3 97 7 110 6 16 5 21 -4 16 -7 -5 -8 -3 -3 6 12 19 15 60 4
60 -4 0 -6 7 -3 15 4 8 11 12 18 8 7 -4 7 -2 -1 7 -8 9 -9 19 -3 31 6 10 6 20
2 23 -6 4 -9 71 -2 71 0 0 2 56 3 125 2 69 6 130 10 137 4 6 3 14 -3 18 -6 4
-7 12 -3 18 9 15 12 47 4 47 -3 0 -5 15 -4 32 1 18 2 33 3 33 7 0 5 53 -2 63
-7 7 -7 12 -1 12 6 0 9 42 9 100 -1 55 2 100 5 100 3 0 4 14 1 30 -2 17 1 36
7 44 7 9 8 17 3 20 -6 3 -8 23 -6 43 2 21 5 80 6 131 1 55 6 92 13 92 5 0 3 5
-5 10 -8 5 -10 10 -5 10 6 0 10 24 10 53 -1 28 4 55 10 59 6 5 5 8 -3 8 -7 0
-10 5 -6 11 3 6 8 36 10 66 3 31 7 59 10 64 3 5 8 22 11 37 3 15 6 32 8 37 1
6 6 29 10 53 4 23 12 45 16 48 5 3 7 10 4 15 -4 5 -3 15 2 22 8 13 9 18 11 55
1 13 6 20 12 17 5 -3 7 0 4 9 -3 8 0 24 6 36 10 18 10 21 -2 14 -10 -6 -11 -5
-2 7 6 8 14 25 17 39 3 14 8 36 12 50 4 14 8 39 9 57 0 17 5 31 10 30 5 -1 10
7 11 18 5 41 16 88 24 104 5 9 7 24 6 34 -2 9 1 17 7 17 6 0 8 6 5 14 -3 8 -3
17 1 20 3 4 7 12 8 19 2 7 6 23 9 37 4 14 7 31 7 38 1 6 5 12 10 12 5 0 6 5 3
10 -4 6 -2 17 4 24 6 7 11 27 13 44 1 18 5 32 8 32 5 0 9 18 12 58 1 6 5 12 9
12 3 0 9 12 12 28 3 15 11 45 17 67 6 22 12 46 12 53 1 6 6 12 11 12 5 0 7 6
4 14 -3 7 -2 17 2 22 10 11 46 126 43 137 -1 4 2 7 8 7 6 0 9 3 9 8 -3 14 14
73 22 78 5 3 9 11 9 19 0 8 5 26 12 42 6 15 12 30 12 33 3 17 40 111 56 143
11 21 15 35 10 32 -5 -3 -3 7 5 22 17 30 37 86 35 92 -1 2 3 7 10 11 6 4 13
20 16 36 3 16 10 31 15 35 5 3 12 16 14 29 2 13 8 26 13 29 5 3 8 14 6 24 -1
9 4 17 12 17 9 0 12 4 9 10 -3 5 0 20 7 32 6 13 13 30 14 38 2 8 8 16 14 18 5
2 8 8 4 13 -3 5 0 9 5 9 6 0 10 3 9 8 -4 10 73 166 86 174 6 4 7 8 3 8 -5 0 1
15 12 33 11 19 18 37 14 40 -3 4 -1 7 6 7 7 0 17 14 22 30 6 17 15 30 21 30 5
0 6 5 3 10 -3 6 1 13 9 16 9 3 13 10 11 15 -3 4 3 17 15 29 11 11 20 22 20 25
-1 13 32 65 40 65 6 0 9 4 7 8 -1 5 9 24 23 42 14 18 25 35 25 39 -1 3 8 16
20 28 57 64 65 73 65 78 0 6 40 52 104 119 45 47 48 49 44 24 -3 -16 -1 -28 5
-28 6 0 6 -5 0 -12 -5 -7 -8 -23 -7 -35 0 -13 -3 -23 -8 -23 -5 0 -6 -5 -2
-11 6 -10 6 -61 0 -159 -1 -14 -5 -31 -9 -37 -5 -7 -4 -13 2 -13 10 0 9 -25
-1 -36 -4 -3 -2 -18 3 -32 7 -18 7 -28 0 -30 -6 -2 -8 -9 -4 -15 4 -7 9 -30
10 -52 2 -21 7 -42 11 -45 4 -3 7 -15 6 -27 -1 -13 3 -23 8 -23 5 0 6 -4 3
-10 -3 -5 -1 -10 4 -10 6 0 10 -4 9 -9 -3 -10 14 -38 49 -81 12 -15 20 -30 18
-34 -3 -3 -3 -4 0 -2 3 2 25 -15 49 -38 54 -51 84 -76 93 -76 3 0 14 -6 22
-14 22 -19 134 -76 159 -81 11 -2 28 -8 38 -13 28 -14 88 -32 107 -32 9 0 17
-3 17 -7 0 -5 17 -8 38 -8 20 0 43 -4 50 -9 6 -4 12 -6 12 -3 0 3 16 1 35 -3
20 -4 38 -4 41 1 3 5 11 6 17 2 17 -11 86 -13 92 -3 3 4 14 6 25 3 35 -9 116
28 160 73 23 24 39 48 35 54 -3 5 -2 10 3 10 9 0 22 28 27 55 0 6 5 21 9 34 5
13 9 45 11 72 2 26 6 53 10 58 3 6 1 11 -6 11 -8 0 -8 4 1 15 9 11 9 15 1 15
-7 0 -9 5 -5 12 10 16 11 99 1 121 -4 9 -4 17 0 17 5 0 8 23 8 50 0 28 -2 50
-6 50 -3 0 -6 7 -6 15 0 8 4 12 8 9 4 -2 7 5 6 16 -1 11 -5 20 -9 20 -4 0 -4
11 1 23 5 13 5 30 1 37 -5 8 -4 22 1 32 7 12 6 18 -1 18 -6 0 -8 5 -5 11 12
18 13 59 1 59 -6 0 -4 5 4 10 8 5 10 10 4 10 -12 0 -11 101 2 121 4 8 3 10 -4
5 -8 -5 -12 0 -12 13 0 12 6 21 13 21 8 0 9 3 1 8 -6 4 -11 14 -11 22 -5 129
-7 149 -17 143 -6 -4 -6 0 1 9 7 8 10 18 7 21 -7 6 -15 63 -17 122 -1 17 -5
32 -8 35 -6 5 -19 63 -22 103 -1 9 -5 17 -10 17 -5 0 -7 6 -4 14 3 7 1 18 -4
23 -5 5 -10 21 -11 36 -1 15 -5 27 -9 27 -6 0 -21 57 -16 63 1 1 -8 13 -20 26
-12 13 -19 29 -16 37 3 8 1 14 -3 14 -10 0 -40 61 -36 73 1 5 -2 6 -7 3 -8 -6
-18 9 -19 28 0 5 -7 13 -16 18 -9 5 -16 13 -16 18 0 5 -18 28 -40 50 -22 22
-40 45 -40 51 0 6 -4 7 -10 4 -5 -3 -10 -2 -10 4 0 5 -21 25 -47 42 -27 18
-50 35 -53 38 -3 3 -12 7 -20 9 -8 2 -17 8 -18 13 -2 5 -8 7 -13 3 -5 -3 -9
-1 -9 5 0 6 -6 8 -14 5 -8 -3 -17 -1 -21 5 -3 6 -17 11 -31 11 -13 0 -24 4
-24 9 0 5 -8 8 -17 6 -10 -1 -26 2 -37 7 -14 7 -16 7 -11 -2 6 -9 3 -9 -13 -1
-11 6 -31 11 -44 11 -103 0 -184 7 -190 15 -5 6 -8 6 -8 -2z"/>
<path d="M6260 8249 c0 -5 5 -7 10 -4 6 3 10 8 10 11 0 2 -4 4 -10 4 -5 0 -10
-5 -10 -11z"/>
</g>
</svg>
