<?xml version="1.0" standalone="no"?>
<!DOCTYPE svg PUBLIC "-//W3C//DTD SVG 20010904//EN"
 "http://www.w3.org/TR/2001/REC-SVG-20010904/DTD/svg10.dtd">
<svg version="1.0" xmlns="http://www.w3.org/2000/svg"
 width="1242.000000pt" height="1242.000000pt" viewBox="0 0 1242.000000 1242.000000"
 preserveAspectRatio="xMidYMid meet">
<metadata>
Created by potrace 1.11, written by Peter Selinger 2001-2013
</metadata>
<g transform="translate(0.000000,1242.000000) scale(0.100000,-0.100000)"
fill="#000000" stroke="none">
<path d="M2938 8774 c-3 -2 -52 -8 -109 -13 -57 -5 -135 -17 -174 -26 -38 -9
-86 -19 -105 -22 -19 -3 -37 -9 -40 -13 -3 -4 -30 -15 -60 -25 -52 -16 -138
-56 -225 -105 -52 -28 -185 -130 -185 -140 0 -5 -9 -12 -20 -15 -11 -3 -20
-10 -20 -15 0 -4 -15 -24 -32 -43 -96 -101 -191 -265 -208 -356 -9 -49 -28
-126 -37 -151 -10 -27 -11 -40 -3 -35 10 6 8 -15 -3 -32 -7 -12 -2 -185 8
-278 7 -61 26 -158 30 -153 1 2 -2 47 -8 101 -15 135 1 294 43 419 97 291 335
501 681 601 166 48 268 61 504 61 231 0 329 -9 526 -50 201 -42 509 -150 509
-179 0 -7 -12 -39 -26 -71 -15 -33 -35 -82 -45 -111 l-18 -52 47 5 c146 18
236 123 237 274 0 80 -16 133 -49 164 -45 40 -84 66 -99 66 -8 0 -17 4 -19 9
-2 7 -231 88 -271 95 -7 1 -30 8 -52 14 -69 19 -188 42 -305 59 -14 2 -97 5
-185 8 -88 3 -188 7 -221 10 -34 2 -64 2 -66 -1z"/>
<path d="M9757 8774 c-2 -2 -33 -7 -68 -10 -113 -9 -317 -49 -329 -63 -3 -4
-27 -12 -55 -19 -27 -7 -90 -32 -140 -57 -49 -24 -97 -45 -105 -47 -8 -2 -17
-6 -20 -9 -3 -3 -41 -34 -85 -69 -97 -76 -155 -127 -155 -137 0 -5 -23 -33
-51 -63 -27 -30 -63 -82 -78 -115 -52 -111 -74 -165 -74 -180 0 -8 -5 -15 -11
-15 -6 0 -4 -5 4 -10 8 -5 10 -10 4 -10 -6 0 -16 -26 -22 -57 -6 -32 -15 -74
-18 -93 -13 -62 -7 -281 9 -355 l16 -70 -6 100 c-8 172 20 330 85 470 111 240
340 421 642 508 164 48 286 62 520 61 229 0 346 -13 558 -60 137 -31 396 -118
469 -159 2 -1 -18 -49 -42 -108 -25 -58 -45 -111 -45 -118 0 -8 18 -10 58 -7
48 3 68 11 109 41 67 49 116 144 114 220 -3 86 -5 101 -18 115 -7 7 -13 19
-13 27 0 26 -106 100 -180 125 -19 7 -44 16 -55 20 -39 15 -200 65 -215 66 -8
1 -44 8 -80 17 -36 8 -90 19 -120 22 -30 4 -63 12 -73 17 -10 5 -124 11 -255
14 -130 3 -245 7 -254 8 -9 2 -19 2 -21 0z"/>
<path d="M6520 8700 c-1005 -5 -959 -3 -1043 -60 -31 -21 -74 -96 -80 -141 -2
-10 -6 -22 -10 -25 -4 -4 -7 -977 -7 -2163 0 -1774 3 -2164 14 -2201 l13 -44
6 54 c3 30 5 1020 4 2200 l-2 2145 1044 -3 c575 -1 1046 -4 1047 -5 1 -1 4
-60 6 -130 l3 -128 -898 3 -897 3 0 -832 0 -833 810 0 810 0 0 -131 0 -131
-810 4 -810 3 0 -1037 0 -1038 930 0 930 0 0 -130 0 -130 -1022 -1 c-900 0
-1018 -2 -978 -15 38 -11 206 -14 1034 -14 544 0 994 4 1000 8 6 4 28 14 50
21 79 27 138 108 140 192 1 26 4 45 9 42 10 -6 9 11 -3 42 -9 22 -12 38 -24
93 -3 15 -94 103 -104 100 -4 -1 -17 3 -30 11 -13 7 -35 14 -50 16 -15 1 -379
3 -810 4 l-784 1 -29 29 -29 29 0 825 c0 453 3 839 6 856 4 17 13 31 20 31 8
0 14 4 14 10 0 6 245 11 663 13 364 1 673 6 687 10 14 3 45 12 69 18 60 17
125 82 141 140 7 24 16 56 21 72 4 15 4 27 0 27 -5 0 -7 12 -5 28 4 32 -23
122 -37 122 -5 0 -9 8 -9 18 -1 19 -57 58 -117 79 -31 11 -164 13 -693 13
-710 0 -719 1 -747 54 -11 21 -13 139 -11 660 3 602 4 635 22 654 18 21 26 21
780 24 761 3 761 3 821 25 117 45 172 133 163 263 -7 93 -32 149 -86 190 -50
38 -53 39 -137 47 -33 3 -62 8 -65 12 -3 3 -421 4 -930 1z"/>
<path d="M2760 8254 c-155 -28 -206 -41 -273 -65 -209 -75 -342 -217 -393
-419 -25 -95 -22 -281 5 -385 26 -101 95 -239 163 -330 70 -93 263 -285 368
-366 47 -36 193 -139 325 -229 345 -234 494 -341 595 -426 246 -207 448 -494
510 -729 27 -101 38 -345 21 -467 -61 -432 -316 -719 -771 -868 -204 -67 -334
-84 -640 -85 -146 0 -296 3 -335 7 l-70 7 50 -15 c77 -22 223 -36 410 -38 291
-2 432 14 643 75 17 5 47 13 65 18 17 5 46 14 62 21 17 6 30 11 30 10 0 -1 18
6 40 16 118 52 175 80 175 87 0 4 6 7 13 7 7 0 31 13 53 30 21 16 43 30 47 30
12 0 122 96 166 144 59 63 151 196 186 269 19 37 31 67 28 67 -3 0 -1 6 4 13
18 22 63 177 69 232 1 11 7 61 14 110 8 60 10 132 6 215 -9 158 -8 150 -16
150 -3 0 -7 12 -7 28 -1 15 -8 54 -17 86 -17 60 -25 80 -77 193 -16 34 -29 64
-29 68 0 3 -5 11 -10 18 -6 7 -28 38 -48 69 -67 102 -145 199 -237 292 -109
109 -186 181 -201 187 -6 2 -26 16 -45 32 -67 54 -135 103 -161 116 -15 8 -25
18 -22 23 3 4 -1 8 -10 8 -13 0 -33 14 -85 60 -10 8 -34 24 -55 35 -21 11 -52
32 -70 47 -17 15 -34 28 -38 28 -9 0 -81 49 -88 59 -3 5 -18 15 -35 24 -16 8
-43 27 -60 41 -16 14 -34 26 -40 26 -5 1 -26 14 -45 30 -19 17 -38 30 -43 30
-6 0 -17 8 -26 18 -9 10 -38 34 -66 54 -27 20 -62 49 -76 65 -14 15 -51 50
-82 76 -31 27 -59 57 -62 68 -4 11 -10 17 -13 15 -10 -6 -130 156 -163 219
-77 145 -99 335 -58 499 12 48 28 93 35 101 8 7 14 17 14 22 0 9 43 55 86 93
16 14 61 41 99 59 39 18 78 37 87 42 16 8 193 46 228 49 101 8 352 7 415 -2
44 -6 91 -12 105 -13 14 -1 34 -4 45 -8 11 -3 43 -8 70 -11 l50 -5 -50 14
c-137 41 -278 57 -510 60 -126 2 -241 1 -255 -1z"/>
<path d="M9595 8253 c-161 -20 -317 -68 -414 -127 -79 -48 -173 -150 -209
-228 -51 -108 -65 -189 -60 -345 4 -121 9 -149 35 -225 43 -124 104 -225 211
-349 149 -173 276 -279 592 -494 532 -361 596 -410 755 -569 301 -304 418
-554 417 -893 -1 -327 -95 -579 -288 -768 -204 -200 -494 -320 -882 -365 -104
-12 -544 -9 -607 5 -23 5 -26 4 -14 -4 21 -14 310 -50 374 -47 28 1 58 -3 68
-8 12 -7 20 -8 25 -1 4 6 52 11 107 11 55 1 114 4 130 6 17 3 57 9 90 13 33 4
67 9 75 11 8 1 30 3 48 3 22 1 31 5 26 13 -4 7 -3 8 4 4 10 -6 135 22 182 41
8 4 18 7 23 8 4 2 8 3 10 4 1 2 13 5 27 7 13 3 29 9 34 14 6 6 17 10 25 10 32
0 248 118 321 174 41 32 92 70 112 85 21 14 37 31 38 37 0 5 16 28 36 50 39
42 94 121 136 194 26 46 93 232 102 285 3 17 10 48 15 70 18 67 25 365 12 426
-40 178 -51 214 -93 309 -11 25 -20 47 -18 49 1 2 -3 7 -10 11 -6 4 -13 16
-15 26 -2 10 -4 20 -5 22 -2 1 -3 8 -4 15 -1 6 -8 11 -15 9 -7 -1 -10 2 -7 7
4 5 2 12 -4 16 -6 4 -21 27 -35 53 -13 26 -36 61 -50 77 -14 17 -45 52 -68 78
-128 147 -228 247 -247 247 -5 0 -10 4 -10 8 0 5 -30 33 -67 63 -38 30 -69 57
-71 62 -2 4 -9 7 -16 7 -7 0 -21 9 -31 20 -10 11 -24 20 -32 20 -7 0 -13 4
-13 8 0 4 -15 16 -32 27 -18 10 -35 22 -38 25 -3 4 -26 21 -52 37 -26 17 -45
33 -41 37 3 3 1 6 -6 6 -9 0 -195 119 -236 152 -30 23 -143 100 -165 110 -14
7 -35 23 -46 36 -12 12 -24 22 -28 22 -5 0 -35 22 -60 46 -6 6 -17 13 -23 15
-13 4 -183 169 -243 235 -46 51 -110 139 -110 152 0 5 -6 15 -14 22 -36 29
-95 233 -97 331 -2 176 43 303 140 394 52 49 153 105 189 105 12 0 22 5 22 10
0 6 14 10 30 10 17 0 30 5 30 10 0 6 15 10 34 10 19 0 71 7 117 16 115 22 471
10 522 -18 14 -7 17 -7 13 1 -9 14 -10 14 50 -3 27 -8 69 -17 94 -20 l45 -5
-45 15 c-61 20 -216 51 -320 64 -79 9 -407 12 -475 3z"/>
<path d="M10598 8113 c7 -3 16 -2 19 1 4 3 -2 6 -13 5 -11 0 -14 -3 -6 -6z"/>
<path d="M8581 7364 c0 -11 3 -14 6 -6 3 7 2 16 -1 19 -3 4 -6 -2 -5 -13z"/>
<path d="M3690 5293 c0 -7 7 -33 16 -58 25 -76 11 -310 -24 -398 -30 -72 -53
-117 -62 -117 -6 0 -10 -6 -10 -13 0 -30 -139 -146 -222 -185 -123 -59 -156
-72 -183 -72 -13 0 -26 -4 -30 -10 -3 -5 -12 -7 -20 -3 -8 3 -15 1 -15 -5 0
-10 -45 -17 -195 -28 -44 -3 -85 -10 -91 -15 -6 -5 -14 -6 -17 -2 -4 3 -37 5
-74 4 -94 -3 -298 16 -358 34 -27 8 -64 16 -81 19 -75 13 -324 105 -354 131
-8 7 -33 18 -55 25 -22 7 -46 17 -53 23 -7 5 -15 7 -18 4 -3 -3 -18 -1 -32 4
-32 11 -125 -4 -130 -20 -2 -6 -12 -11 -21 -11 -23 0 -121 -97 -121 -119 0
-10 -4 -21 -10 -27 -11 -11 -21 -140 -13 -161 6 -15 41 26 93 107 l31 49 57
-36 c156 -100 411 -196 622 -235 153 -28 492 -30 645 -5 207 36 367 97 499
191 106 76 203 199 245 310 53 143 67 351 32 487 -20 75 -50 154 -51 132z"/>
<path d="M10536 5250 c4 -14 8 -35 9 -47 0 -13 3 -23 7 -23 9 0 3 -193 -6
-227 -3 -13 -8 -33 -11 -45 -5 -26 -43 -127 -53 -144 -32 -52 -64 -94 -71 -94
-5 0 -11 -6 -13 -14 -4 -20 -101 -100 -148 -122 -22 -10 -40 -22 -40 -26 0 -5
-11 -8 -25 -8 -14 0 -25 -4 -25 -10 0 -5 -8 -10 -18 -10 -11 0 -32 -7 -49 -15
-101 -50 -543 -90 -708 -64 -55 9 -109 16 -160 23 -84 12 -248 68 -382 132
-50 24 -97 44 -102 44 -6 0 -11 5 -11 11 0 5 -4 8 -8 5 -5 -3 -28 2 -53 10
-49 17 -114 12 -162 -12 -15 -8 -32 -12 -38 -9 -5 4 -8 3 -7 -2 1 -4 -12 -23
-30 -42 -18 -18 -32 -39 -32 -47 0 -8 -4 -14 -9 -14 -18 0 -41 -71 -48 -144
-3 -42 -3 -76 1 -76 10 0 38 33 88 106 l42 62 65 -41 c290 -178 652 -268 1016
-254 598 25 946 251 1025 667 25 131 0 405 -40 443 -10 9 -10 7 -4 -13z"/>
<path d="M2088 3933 c7 -3 16 -2 19 1 4 3 -2 6 -13 5 -11 0 -14 -3 -6 -6z"/>
<path d="M2139 3917 c5 -5 19 -7 32 -5 20 3 19 5 -9 9 -20 3 -29 2 -23 -4z"/>
<path d="M2225 3900 c27 -12 35 -12 35 0 0 6 -12 10 -27 9 -25 0 -26 -1 -8 -9z"/>
<path d="M9048 3903 c6 -2 18 -2 25 0 6 3 1 5 -13 5 -14 0 -19 -2 -12 -5z"/>
</g>
</svg>
